<svg xmlns="http://www.w3.org/2000/svg" viewBox="0 0 103.19 122.88" fill="currentColor">
    <path
        d="M17.16 0h68.87a17.16 17.16 0 0117.16 17.16v78.47c-.15 2.58-3.48 2.64-7.08 2.48H15.94c-4.98 0-9.05 4.07-9.05 9.05s4.07 9.05 9.05 9.05h80.17v-9.63h7.08v12.24c0 2.23-1.82 4.05-4.05 4.05H16.29C7.33 122.88 0 115.55 0 106.59V17.16C0 7.72 7.72 0 17.16 0zm3.19 13.4h2.86c1.46 0 2.66.97 2.66 2.15v67.47c0 1.18-1.2 2.15-2.66 2.15h-2.86c-1.46 0-2.66-.97-2.66-2.15V15.55c.01-1.19 1.2-2.15 2.66-2.15z"
        fill-rule="evenodd" clip-rule="evenodd" stroke="currentColor" stroke-width="4"
        stroke-linejoin="round" />
</svg>